/* XPM */
static char * icewm_win2k_border_xpm[] = {
"57 22 10 1",
" 	c None",
".	c #FFFFFF",
"+	c #404040",
"@	c #D4D0C8",
"#	c #808080",
"$	c #000000",
"%	c #FF0000",
"&	c #00FF00",
"*	c #0000FF",
"=	c #FFFF00",
" ......................................................+ ",
" .@@@@@@@@@@@@@@@@@@@@@@@@@@@@@@@@@@@@@@@@@@@@@@@@@@@@#+ ",
" .@@@@@@@@@@@@@@@@@@@@@@@@@@@@@@@@@@@@@@@@@@@@@@@@@@@@#+ ",
" .@@@@@@@@@@@@@@@@@@@@@@@@@@@@@@@@@@@@@@@@@@@@@@@@@@@@#+ ",
" .@@@@@@@@@@@@$$$$@@@@@@@@@@@@@@@@@@@@@@@@@@@@@@@@@@@@#+ ",
" .@@@@@@@@@@$$$$$$$$@@@@@@@@@@@@@@@@@@@@@@@@@@@@@@@@@@#+ ",
" .@@@$@@@@@$$$%$$&$$$@@@@@@@@@@@@@@@@@@@@@@@@@@@@@@@@@#+ ",
" .@@@$@$@$$$$%%$$&&$$@@@$$$$$@$$@@@@@@@@@@@@@@@$$@@@@@#+ ",
" .@@@@@$$$$$$%%$$&&$$@@$$@@@@@$$@@@@@@@@@@@@@@@$$@@@@@#+ ",
" .@@@%@@@@@$$%$$$$&$$@@$$@@@@@$$$$@@$$$$@@$$@$@$$$$@@@#+ ",
" .@@@%@%@%%$$$$$$$$$$@@$$$$$@@$$@@@@@@@$$@$$$$@$$@@@@@#+ ",
" .@@@@@%%%%$$$*$$=$$$@@@$$$$$@$$@@@@$$$$$@$$@@@$$@@@@@#+ ",
" .@@@*@@@@@$$**$$==$$@@@@@@$$@$$@@@$$@@$$@$$@@@$$@@@@@#+ ",
" .@@@*@*@**$$**$$==$$@@@@@@$$@$$@@@$$@@$$@$$@@@$$@@@@@#+ ",
" .@@@@@****$$*$$$$=$$@@$$$$$@@@$$$@@$$$$$@$$@@@@$$$@@@#+ ",
" .@@@$@@@@@$$$$$$$$$$@@@@@@@@@@@@@@@@@@@@@@@@@@@@@@@@@#+ ",
" .@@@$@$@$$$$$@@@@$$$@@@@@@@@@@@@@@@@@@@@@@@@@@@@@@@@@#+ ",
" .@@@@@$$$$$@@@@@@@@$@@@@@@@@@@@@@@@@@@@@@@@@@@@@@@@@@#+ ",
" .@@@@@@@@@@@@@@@@@@@@@@@@@@@@@@@@@@@@@@@@@@@@@@@@@@@@#+ ",
" .@@@@@@@@@@@@@@@@@@@@@@@@@@@@@@@@@@@@@@@@@@@@@@@@@@@@#+ ",
" .#####################################################+ ",
" +++++++++++++++++++++++++++++++++++++++++++++++++++++++ "};
