/* XPM */
static char * taskbuttonminimized_xpm[] = {
"162 25 4 1",
" 	c #D4D0C8",
".	c #FFFFFF",
"+	c #424242",
"@	c #848484",
"                                                                                                                                                                  ",
"                                                                                                                                                                  ",
" ...............................................................................................................................................................+ ",
" .                                                                                                                                                              + ",
" .                                                                                                                                                              + ",
" .                                                                                                                                                              + ",
" .                                                                                                                                                              + ",
" .                                                                                                                                                              + ",
" .                                                                                                                                                              + ",
" .                                                                                                                                                              + ",
" .                                                                                                                                                              + ",
" .                                                                                                                                                              + ",
" .                                                                                                                                                              + ",
" .                                                                                                                                                              + ",
" .                                                                                                                                                              + ",
" .                                                                                                                                                              + ",
" .                                                                                                                                                              + ",
" .                                                                                                                                                              + ",
" .                                                                                                                                                              + ",
" .                                                                                                                                                              + ",
" .                                                                                                                                                              + ",
" .                                                                                                                                                              + ",
" .@@@@@@@@@@@@@@@@@@@@@@@@@@@@@@@@@@@@@@@@@@@@@@@@@@@@@@@@@@@@@@@@@@@@@@@@@@@@@@@@@@@@@@@@@@@@@@@@@@@@@@@@@@@@@@@@@@@@@@@@@@@@@@@@@@@@@@@@@@@@@@@@@@@@@@@@@@@@@@+ ",
" ++++++++++++++++++++++++++++++++++++++++++++++++++++++++++++++++++++++++++++++++++++++++++++++++++++++++++++++++++++++++++++++++++++++++++++++++++++++++++++++++ ",
"                                                                                                                                                                  "};
