/* XPM */
static char * toolbuttonbg_xpm[] = {
"1 25 4 1",
" 	c #d6d3de",
".	c #ffffff",
"+	c #848484",
"@	c #424242",
" ",
" ",
".",
" ",
" ",
" ",
" ",
" ",
" ",
" ",
" ",
" ",
" ",
" ",
" ",
" ",
" ",
" ",
" ",
" ",
" ",
" ",
"+",
"@",
"."};
