/* XPM */
static char * closeA_xpm[] = {
"19 38 6 1",
" 	c #A9CDF2",
".	c #FFFFFF",
"+	c #424242",
"@	c #D6D3CE",
"#	c #848484",
"$	c #000000",
"                   ",
"                   ",
" ...............+  ",
" .@@@@@@@@@@@@@#+  ",
" .@@@@@@@@@@@@@#+  ",
" .@@@$$@@@@$$@@#+  ",
" .@@@@$$@@$$@@@#+  ",
" .@@@@@$$$$@@@@#+  ",
" .@@@@@@$$@@@@@#+  ",
" .@@@@@$$$$@@@@#+  ",
" .@@@@$$@@$$@@@#+  ",
" .@@@$$@@@@$$@@#+  ",
" .@@@@@@@@@@@@@#+  ",
" .@@@@@@@@@@@@@#+  ",
" .##############+  ",
" ++++++++++++++++  ",
"                   ",
"                   ",
"                   ",
"                   ",
"                   ",
" ++++++++++++++++  ",
" +##############.  ",
" +#@@@@@@@@@@@@@.  ",
" +#@@@@@@@@@@@@@.  ",
" +#@@$$@@@@$$@@@.  ",
" +#@@@$$@@$$@@@@.  ",
" +#@@@@$$$$@@@@@.  ",
" +#@@@@@$$@@@@@@.  ",
" +#@@@@$$$$@@@@@.  ",
" +#@@@$$@@$$@@@@.  ",
" +#@@$$@@@@$$@@@.  ",
" +#@@@@@@@@@@@@@.  ",
" +#@@@@@@@@@@@@@.  ",
" +...............  ",
"                   ",
"                   ",
"                   "};
