/* XPM */
static char * menuButtonI_xpm[] = {
"19 38 3 1",
" 	c #808080",
".	c #7F7F7F",
"+	c #7E7E7E",
"   ....     ....   ",
"   ....     ....   ",
"   ....     ....   ",
"   ....     ....   ",
"....... ... ....   ",
" ...... ..  ....   ",
"...+........++++...",
"...++.......++++...",
"....+++.....++++...",
"....+++.....++++...",
"....++......++++...",
"............+++....",
"...................",
".. .......  ....   ",
".  ......   ....   ",
".  .......  ....   ",
"   ....   ......   ",
"   ....    .....   ",
"...................",
"   ....   ......   ",
"   ....     ....   ",
"   ....     ....   ",
"   ....     ....   ",
"   ....     ....   ",
"  ..............   ",
"..............++...",
"....++.......+++...",
"....+++......+++...",
"...++++.....++++...",
"...++++.....+++....",
"...++++.....++.....",
"...++++.....++.....",
".......     ....   ",
".. ....     ....   ",
"   ....     ....   ",
"   ....     ....   ",
"   ....     ....   ",
"..................."};
