/* XPM */
static char * minimizeA_xpm[] = {
"17 38 7 1",
" 	c None",
".	c #c0c0c0",
"+	c #ffffff",
"@	c #424242",
"#	c #d6d3ce",
"$	c #848484",
"%	c #000000",
".................",
".................",
".+++++++++++++++@",
".+#############$@",
".+#############$@",
".+#############$@",
".+#############$@",
".+#############$@",
".+#############$@",
".+#############$@",
".+#############$@",
".+##%%%%%%%####$@",
".+##%%%%%%%####$@",
".+#############$@",
".+$$$$$$$$$$$$$$@",
".@@@@@@@@@@@@@@@@",
".................",
".................",
".................",
".................",
".................",
".@@@@@@@@@@@@@@@@",
".@$$$$$$$$$$$$$$+",
".@$#############+",
".@$#############+",
".@$#############+",
".@$#############+",
".@$#############+",
".@$#############+",
".@$#############+",
".@$#############+",
".@$#%%%%%%%#####+",
".@$#%%%%%%%#####+",
".@$#############+",
".@+++++++++++++++",
".................",
".................",
"................."};
