/* XPM */
static char * titleAB_xpm[] = {
"2 19 3 1",
" 	c None",
".	c #808080",
"+	c #c0c0c0",
".+",
".+",
".+",
".+",
".+",
".+",
".+",
".+",
".+",
".+",
".+",
".+",
".+",
".+",
".+",
".+",
".+",
".+",
".+"};
